<mxfile host="app.diagrams.net" modified="2023-10-29T16:27:37.295Z" agent="Mozilla/5.0 (Windows NT 10.0; Win64; x64) AppleWebKit/537.36 (KHTML, like Gecko) Chrome/118.0.0.0 Safari/537.36" etag="HNKnx4h5vJ4IR6BJ8zb-" version="22.0.8" type="github">
  <diagram id="R2lEEEUBdFMjLlhIrx00" name="Page-1">
    <mxGraphModel dx="3021" dy="2245" grid="1" gridSize="10" guides="1" tooltips="1" connect="1" arrows="1" fold="1" page="1" pageScale="1" pageWidth="850" pageHeight="1100" math="0" shadow="0" extFonts="Permanent Marker^https://fonts.googleapis.com/css?family=Permanent+Marker">
      <root>
        <mxCell id="0" />
        <mxCell id="1" parent="0" />
        <mxCell id="meDeadWaqPJBfcy_o66P-3" value="Admin" style="html=1;overflow=block;blockSpacing=1;whiteSpace=wrap;fontSize=16.7;spacing=9;strokeOpacity=100;rounded=0;absoluteArcSize=1;arcSize=9;strokeWidth=0.8;lucidId=KpLCbtdUFH.R;fontStyle=1;labelBackgroundColor=none;" vertex="1" parent="1">
          <mxGeometry x="-90" y="-165" width="180" height="135" as="geometry" />
        </mxCell>
        <mxCell id="meDeadWaqPJBfcy_o66P-4" value="manages" style="html=1;overflow=block;blockSpacing=1;whiteSpace=wrap;rhombus;fontSize=16.7;spacing=3.8;strokeOpacity=100;rounded=0;absoluteArcSize=1;arcSize=9;strokeWidth=0.8;lucidId=dqLCzT005vJW;fontStyle=1;labelBackgroundColor=none;" vertex="1" parent="1">
          <mxGeometry x="255" y="-187" width="180" height="180" as="geometry" />
        </mxCell>
        <mxCell id="meDeadWaqPJBfcy_o66P-5" value="" style="html=1;jettySize=18;whiteSpace=wrap;fontSize=13;strokeOpacity=100;strokeWidth=0.8;rounded=0;arcSize=12;edgeStyle=orthogonalEdgeStyle;startArrow=none;endArrow=block;endFill=1;exitX=1.002;exitY=0.5;exitPerimeter=0;entryX=0.016;entryY=0.5;entryPerimeter=0;lucidId=kqLCydGlWOv~;fontStyle=1;labelBackgroundColor=none;fontColor=default;" edge="1" parent="1" source="meDeadWaqPJBfcy_o66P-3" target="meDeadWaqPJBfcy_o66P-4">
          <mxGeometry width="100" height="100" relative="1" as="geometry">
            <Array as="points" />
          </mxGeometry>
        </mxCell>
        <mxCell id="meDeadWaqPJBfcy_o66P-6" value="" style="html=1;jettySize=18;whiteSpace=wrap;fontSize=13;strokeOpacity=100;strokeWidth=0.8;rounded=0;arcSize=12;edgeStyle=orthogonalEdgeStyle;startArrow=none;endArrow=block;endFill=1;exitX=0.984;exitY=0.5;exitPerimeter=0;entryX=-0.002;entryY=0.5;entryPerimeter=0;lucidId=fLLCQpPizYR.;fontStyle=1;labelBackgroundColor=none;fontColor=default;" edge="1" parent="1" source="meDeadWaqPJBfcy_o66P-4" target="meDeadWaqPJBfcy_o66P-7">
          <mxGeometry width="100" height="100" relative="1" as="geometry">
            <Array as="points" />
          </mxGeometry>
        </mxCell>
        <mxCell id="meDeadWaqPJBfcy_o66P-7" value="Halls" style="html=1;overflow=block;blockSpacing=1;whiteSpace=wrap;fontSize=16.7;spacing=9;strokeOpacity=100;rounded=0;absoluteArcSize=1;arcSize=9;strokeWidth=0.8;lucidId=9LLCF~Y7Susk;fontStyle=1;labelBackgroundColor=none;" vertex="1" parent="1">
          <mxGeometry x="585" y="-165" width="195" height="135" as="geometry" />
        </mxCell>
        <mxCell id="meDeadWaqPJBfcy_o66P-8" value="Organizers" style="html=1;overflow=block;blockSpacing=1;whiteSpace=wrap;fontSize=16.7;spacing=9;strokeOpacity=100;rounded=0;absoluteArcSize=1;arcSize=9;strokeWidth=0.8;lucidId=_QLClmYFMwCv;fontStyle=1;labelBackgroundColor=none;" vertex="1" parent="1">
          <mxGeometry x="615" y="330" width="180" height="120" as="geometry" />
        </mxCell>
        <mxCell id="meDeadWaqPJBfcy_o66P-9" value="can book" style="html=1;overflow=block;blockSpacing=1;whiteSpace=wrap;rhombus;fontSize=16.7;spacing=3.8;strokeOpacity=100;rounded=0;absoluteArcSize=1;arcSize=9;strokeWidth=0.8;lucidId=JTLCNN61BDaS;fontStyle=1;labelBackgroundColor=none;" vertex="1" parent="1">
          <mxGeometry x="595" y="70" width="180" height="158" as="geometry" />
        </mxCell>
        <mxCell id="meDeadWaqPJBfcy_o66P-12" value="provides" style="html=1;overflow=block;blockSpacing=1;whiteSpace=wrap;rhombus;fontSize=16.7;spacing=3.8;strokeOpacity=100;rounded=0;absoluteArcSize=1;arcSize=9;strokeWidth=0.8;lucidId=WFkFmqg6Rq8O;fontStyle=1;labelBackgroundColor=none;" vertex="1" parent="1">
          <mxGeometry x="90" y="15" width="165" height="143" as="geometry" />
        </mxCell>
        <mxCell id="meDeadWaqPJBfcy_o66P-13" value="" style="html=1;jettySize=18;whiteSpace=wrap;fontSize=13;strokeOpacity=100;strokeWidth=0.8;rounded=0;arcSize=12;edgeStyle=orthogonalEdgeStyle;startArrow=none;endArrow=block;endFill=1;exitX=0.5;exitY=1.003;exitPerimeter=0;entryX=0.01;entryY=0.5;entryPerimeter=0;lucidId=_IkFXkLMDs3p;fontStyle=1;labelBackgroundColor=none;fontColor=default;" edge="1" parent="1" source="meDeadWaqPJBfcy_o66P-3" target="meDeadWaqPJBfcy_o66P-12">
          <mxGeometry width="100" height="100" relative="1" as="geometry">
            <Array as="points">
              <mxPoint y="86" />
            </Array>
          </mxGeometry>
        </mxCell>
        <mxCell id="meDeadWaqPJBfcy_o66P-14" value="" style="html=1;jettySize=18;whiteSpace=wrap;fontSize=13;strokeOpacity=100;strokeWidth=0.8;rounded=0;arcSize=12;edgeStyle=orthogonalEdgeStyle;startArrow=none;endArrow=block;endFill=1;exitX=0.5;exitY=0.991;exitPerimeter=0;entryX=0.5;entryY=-0.003;entryPerimeter=0;lucidId=~JkF5UH7Lnax;fontStyle=1;labelBackgroundColor=none;fontColor=default;" edge="1" parent="1" source="meDeadWaqPJBfcy_o66P-12" target="meDeadWaqPJBfcy_o66P-15">
          <mxGeometry width="100" height="100" relative="1" as="geometry">
            <Array as="points" />
          </mxGeometry>
        </mxCell>
        <mxCell id="meDeadWaqPJBfcy_o66P-15" value="Services" style="html=1;overflow=block;blockSpacing=1;whiteSpace=wrap;fontSize=16.7;spacing=9;strokeOpacity=100;rounded=0;absoluteArcSize=1;arcSize=9;strokeWidth=0.8;lucidId=qKkFxrgOKF2B;fontStyle=1;labelBackgroundColor=none;" vertex="1" parent="1">
          <mxGeometry x="86" y="330" width="173" height="120" as="geometry" />
        </mxCell>
        <mxCell id="meDeadWaqPJBfcy_o66P-16" value="" style="html=1;jettySize=18;whiteSpace=wrap;fontSize=13;strokeOpacity=100;strokeWidth=0.8;rounded=0;arcSize=12;edgeStyle=orthogonalEdgeStyle;startArrow=none;endArrow=block;endFill=1;exitX=-0.002;exitY=0.5;exitPerimeter=0;entryX=0.988;entryY=0.5;entryPerimeter=0;lucidId=MLkF_HnE~jHg;fontStyle=1;labelBackgroundColor=none;fontColor=default;" edge="1" parent="1" source="meDeadWaqPJBfcy_o66P-8" target="meDeadWaqPJBfcy_o66P-17">
          <mxGeometry width="100" height="100" relative="1" as="geometry">
            <Array as="points" />
          </mxGeometry>
        </mxCell>
        <mxCell id="meDeadWaqPJBfcy_o66P-17" value="can select" style="html=1;overflow=block;blockSpacing=1;whiteSpace=wrap;rhombus;fontSize=16.7;spacing=3.8;strokeOpacity=100;rounded=0;absoluteArcSize=1;arcSize=9;strokeWidth=0.8;lucidId=5LkF80lJlK-z;fontStyle=1;labelBackgroundColor=none;" vertex="1" parent="1">
          <mxGeometry x="360" y="330" width="165" height="120" as="geometry" />
        </mxCell>
        <mxCell id="meDeadWaqPJBfcy_o66P-18" value="" style="html=1;jettySize=18;whiteSpace=wrap;fontSize=13;strokeOpacity=100;strokeWidth=0.8;rounded=0;arcSize=12;edgeStyle=orthogonalEdgeStyle;startArrow=none;endArrow=block;endFill=1;exitX=0.012;exitY=0.5;exitPerimeter=0;entryX=1.002;entryY=0.5;entryPerimeter=0;lucidId=_LkFQsJMvj0p;fontStyle=1;labelBackgroundColor=none;fontColor=default;" edge="1" parent="1" source="meDeadWaqPJBfcy_o66P-17" target="meDeadWaqPJBfcy_o66P-15">
          <mxGeometry width="100" height="100" relative="1" as="geometry">
            <Array as="points" />
          </mxGeometry>
        </mxCell>
        <mxCell id="meDeadWaqPJBfcy_o66P-19" value="" style="html=1;jettySize=18;whiteSpace=wrap;fontSize=13;strokeOpacity=100;strokeWidth=0.8;rounded=0;arcSize=12;edgeStyle=orthogonalEdgeStyle;startArrow=none;endArrow=block;endFill=1;exitX=0.5;exitY=1.003;exitPerimeter=0;lucidId=VPkFvVDWOWpU;fontStyle=1;labelBackgroundColor=none;fontColor=default;" edge="1" parent="1" source="meDeadWaqPJBfcy_o66P-8">
          <mxGeometry width="100" height="100" relative="1" as="geometry">
            <Array as="points" />
            <mxPoint x="705" y="585" as="targetPoint" />
          </mxGeometry>
        </mxCell>
        <mxCell id="meDeadWaqPJBfcy_o66P-20" value="Events" style="html=1;overflow=block;blockSpacing=1;whiteSpace=wrap;fontSize=16.7;spacing=9;strokeOpacity=100;rounded=0;absoluteArcSize=1;arcSize=9;strokeWidth=0.8;lucidId=mQkFCpuHFvuC;fontStyle=1;labelBackgroundColor=none;" vertex="1" parent="1">
          <mxGeometry x="255" y="690" width="180" height="120" as="geometry" />
        </mxCell>
        <mxCell id="meDeadWaqPJBfcy_o66P-114" style="edgeStyle=orthogonalEdgeStyle;rounded=0;orthogonalLoop=1;jettySize=auto;html=1;exitX=0.5;exitY=1;exitDx=0;exitDy=0;entryX=1;entryY=0.5;entryDx=0;entryDy=0;" edge="1" parent="1" source="meDeadWaqPJBfcy_o66P-21" target="meDeadWaqPJBfcy_o66P-20">
          <mxGeometry relative="1" as="geometry" />
        </mxCell>
        <mxCell id="meDeadWaqPJBfcy_o66P-21" value="can organize" style="html=1;overflow=block;blockSpacing=1;whiteSpace=wrap;rhombus;fontSize=16.7;spacing=3.8;strokeOpacity=100;rounded=0;absoluteArcSize=1;arcSize=9;strokeWidth=0.8;lucidId=9QkFoh2UmIv-;fontStyle=1;labelBackgroundColor=none;" vertex="1" parent="1">
          <mxGeometry x="608" y="585" width="195" height="135" as="geometry" />
        </mxCell>
        <mxCell id="meDeadWaqPJBfcy_o66P-23" value="TIckets" style="html=1;overflow=block;blockSpacing=1;whiteSpace=wrap;fontSize=16.7;spacing=9;strokeOpacity=100;rounded=0;absoluteArcSize=1;arcSize=9;strokeWidth=0.8;lucidId=iSkFEqox1wn3;fontStyle=1;labelBackgroundColor=none;" vertex="1" parent="1">
          <mxGeometry x="-225" y="525" width="180" height="120" as="geometry" />
        </mxCell>
        <mxCell id="meDeadWaqPJBfcy_o66P-24" value="can sell" style="html=1;overflow=block;blockSpacing=1;whiteSpace=wrap;rhombus;fontSize=16.7;spacing=3.8;strokeOpacity=100;rounded=0;absoluteArcSize=1;arcSize=9;strokeWidth=0.8;lucidId=ISkFFQK2gkqr;fontStyle=1;labelBackgroundColor=none;" vertex="1" parent="1">
          <mxGeometry x="180" y="510" width="165" height="120" as="geometry" />
        </mxCell>
        <mxCell id="meDeadWaqPJBfcy_o66P-25" value="" style="html=1;jettySize=18;whiteSpace=wrap;fontSize=13;strokeOpacity=100;strokeWidth=0.8;rounded=0;arcSize=12;edgeStyle=orthogonalEdgeStyle;startArrow=none;endArrow=block;endFill=1;exitX=0.072;exitY=1.003;exitPerimeter=0;entryX=0.988;entryY=0.5;entryPerimeter=0;lucidId=WSkF6-FwsGE7;fontStyle=1;labelBackgroundColor=none;fontColor=default;" edge="1" parent="1" source="meDeadWaqPJBfcy_o66P-8" target="meDeadWaqPJBfcy_o66P-24">
          <mxGeometry width="100" height="100" relative="1" as="geometry">
            <Array as="points" />
          </mxGeometry>
        </mxCell>
        <mxCell id="meDeadWaqPJBfcy_o66P-26" value="" style="html=1;jettySize=18;whiteSpace=wrap;fontSize=13;strokeOpacity=100;strokeWidth=0.8;rounded=0;arcSize=12;edgeStyle=orthogonalEdgeStyle;startArrow=none;endArrow=block;endFill=1;exitX=0.012;exitY=0.5;exitPerimeter=0;entryX=1.002;entryY=0.375;entryPerimeter=0;lucidId=sTkFb__tLF4c;fontStyle=1;labelBackgroundColor=none;fontColor=default;" edge="1" parent="1" source="meDeadWaqPJBfcy_o66P-24" target="meDeadWaqPJBfcy_o66P-23">
          <mxGeometry width="100" height="100" relative="1" as="geometry">
            <Array as="points" />
          </mxGeometry>
        </mxCell>
        <mxCell id="meDeadWaqPJBfcy_o66P-27" value="Attendee" style="html=1;overflow=block;blockSpacing=1;whiteSpace=wrap;fontSize=16.7;spacing=9;strokeOpacity=100;rounded=0;absoluteArcSize=1;arcSize=9;strokeWidth=0.8;lucidId=~UkF~fBiXZ2X;fontStyle=1;labelBackgroundColor=none;" vertex="1" parent="1">
          <mxGeometry x="-210" y="915" width="180" height="120" as="geometry" />
        </mxCell>
        <mxCell id="meDeadWaqPJBfcy_o66P-28" value="can browse" style="html=1;overflow=block;blockSpacing=1;whiteSpace=wrap;rhombus;fontSize=16.7;spacing=3.8;strokeOpacity=100;rounded=0;absoluteArcSize=1;arcSize=9;strokeWidth=0.8;lucidId=qVkF7cQp-EyA;fontStyle=1;labelBackgroundColor=none;" vertex="1" parent="1">
          <mxGeometry x="140" y="930" width="150" height="120" as="geometry" />
        </mxCell>
        <mxCell id="meDeadWaqPJBfcy_o66P-29" value="can buy" style="html=1;overflow=block;blockSpacing=1;whiteSpace=wrap;rhombus;fontSize=16.7;spacing=3.8;strokeOpacity=100;rounded=0;absoluteArcSize=1;arcSize=9;strokeWidth=0.8;lucidId=zVkFrsjTbzOY;fontStyle=1;labelBackgroundColor=none;" vertex="1" parent="1">
          <mxGeometry x="-195" y="720" width="150" height="120" as="geometry" />
        </mxCell>
        <mxCell id="meDeadWaqPJBfcy_o66P-30" value="" style="html=1;jettySize=18;whiteSpace=wrap;fontSize=13;strokeOpacity=100;strokeWidth=0.8;rounded=0;arcSize=12;edgeStyle=orthogonalEdgeStyle;startArrow=none;endArrow=block;endFill=1;exitX=1.015;exitY=0.625;exitPerimeter=0;entryX=0.012;entryY=0.5;entryPerimeter=0;lucidId=qWkFZ.YyzUDy;fontStyle=1;labelBackgroundColor=none;fontColor=default;exitDx=0;exitDy=0;" edge="1" parent="1" source="meDeadWaqPJBfcy_o66P-27" target="meDeadWaqPJBfcy_o66P-28">
          <mxGeometry width="100" height="100" relative="1" as="geometry">
            <Array as="points" />
          </mxGeometry>
        </mxCell>
        <mxCell id="meDeadWaqPJBfcy_o66P-31" value="" style="html=1;jettySize=18;whiteSpace=wrap;fontSize=13;strokeOpacity=100;strokeWidth=0.8;rounded=0;arcSize=12;edgeStyle=orthogonalEdgeStyle;startArrow=none;endArrow=block;endFill=1;exitX=0.988;exitY=0.5;exitPerimeter=0;entryX=0.5;entryY=1.003;entryPerimeter=0;lucidId=yWkF2-0WXY~N;fontStyle=1;labelBackgroundColor=none;fontColor=default;" edge="1" parent="1" source="meDeadWaqPJBfcy_o66P-28" target="meDeadWaqPJBfcy_o66P-20">
          <mxGeometry width="100" height="100" relative="1" as="geometry">
            <Array as="points" />
          </mxGeometry>
        </mxCell>
        <mxCell id="meDeadWaqPJBfcy_o66P-32" value="" style="html=1;jettySize=18;whiteSpace=wrap;fontSize=13;strokeOpacity=100;strokeWidth=0.8;rounded=0;arcSize=12;edgeStyle=orthogonalEdgeStyle;startArrow=none;endArrow=block;endFill=1;exitX=0.5;exitY=-0.003;exitPerimeter=0;entryX=0.5;entryY=0.99;entryPerimeter=0;lucidId=JWkFhqtfwvJO;fontStyle=1;labelBackgroundColor=none;fontColor=default;" edge="1" parent="1" source="meDeadWaqPJBfcy_o66P-27" target="meDeadWaqPJBfcy_o66P-29">
          <mxGeometry width="100" height="100" relative="1" as="geometry">
            <Array as="points" />
          </mxGeometry>
        </mxCell>
        <mxCell id="meDeadWaqPJBfcy_o66P-33" value="" style="html=1;jettySize=18;whiteSpace=wrap;fontSize=13;strokeOpacity=100;strokeWidth=0.8;rounded=0;arcSize=12;edgeStyle=orthogonalEdgeStyle;startArrow=none;endArrow=block;endFill=1;exitX=0.5;exitY=0.01;exitPerimeter=0;entryX=0.583;entryY=1.003;entryPerimeter=0;lucidId=PWkFNi8KiBug;fontStyle=1;labelBackgroundColor=none;fontColor=default;" edge="1" parent="1" source="meDeadWaqPJBfcy_o66P-29" target="meDeadWaqPJBfcy_o66P-23">
          <mxGeometry width="100" height="100" relative="1" as="geometry">
            <Array as="points" />
          </mxGeometry>
        </mxCell>
        <mxCell id="meDeadWaqPJBfcy_o66P-38" value="" style="html=1;overflow=block;blockSpacing=1;whiteSpace=wrap;fontSize=13;spacing=0;strokeOpacity=100;rounded=0;absoluteArcSize=1;arcSize=9;rotation=-270;strokeWidth=0.8;lucidId=1elFm.6ALRKb;fontStyle=1;labelBackgroundColor=none;" vertex="1" parent="1">
          <mxGeometry x="557" y="-253" width="176" height="1" as="geometry" />
        </mxCell>
        <mxCell id="meDeadWaqPJBfcy_o66P-39" value="" style="html=1;jettySize=18;whiteSpace=wrap;fontSize=13;strokeOpacity=100;strokeWidth=0.8;rounded=0;startArrow=none;endArrow=none;exitX=0.848;exitY=-0.003;exitPerimeter=0;entryX=0.556;entryY=1.004;entryPerimeter=0;lucidId=RilF.udGFf9R;fontStyle=1;labelBackgroundColor=none;fontColor=default;" edge="1" parent="1" source="meDeadWaqPJBfcy_o66P-7">
          <mxGeometry width="100" height="100" relative="1" as="geometry">
            <Array as="points" />
            <mxPoint x="833.4000000000005" y="-329.6399999999999" as="targetPoint" />
          </mxGeometry>
        </mxCell>
        <mxCell id="meDeadWaqPJBfcy_o66P-40" value="" style="html=1;jettySize=18;whiteSpace=wrap;fontSize=13;strokeOpacity=100;strokeWidth=0.8;rounded=0;startArrow=none;endArrow=none;exitX=1.002;exitY=0.5;exitPerimeter=0;entryX=0.005;entryY=0.622;entryPerimeter=0;lucidId=ZilFgLtanpX5;fontStyle=1;labelBackgroundColor=none;fontColor=default;" edge="1" parent="1" source="meDeadWaqPJBfcy_o66P-7">
          <mxGeometry width="100" height="100" relative="1" as="geometry">
            <Array as="points" />
            <mxPoint x="900.9000000000005" y="-259.02000000000044" as="targetPoint" />
          </mxGeometry>
        </mxCell>
        <mxCell id="meDeadWaqPJBfcy_o66P-41" value="" style="html=1;jettySize=18;whiteSpace=wrap;fontSize=13;strokeOpacity=100;strokeWidth=0.8;rounded=0;startArrow=none;endArrow=none;exitX=1.002;exitY=0.819;exitPerimeter=0;entryX=-0.002;entryY=0.5;entryPerimeter=0;lucidId=6ilFAqbGOldV;fontStyle=1;labelBackgroundColor=none;fontColor=default;" edge="1" parent="1" source="meDeadWaqPJBfcy_o66P-7">
          <mxGeometry width="100" height="100" relative="1" as="geometry">
            <Array as="points" />
            <mxPoint x="989.6400000000003" y="-105" as="targetPoint" />
          </mxGeometry>
        </mxCell>
        <mxCell id="meDeadWaqPJBfcy_o66P-43" value="" style="html=1;jettySize=18;whiteSpace=wrap;fontSize=13;strokeOpacity=100;strokeWidth=0.8;rounded=0;startArrow=none;endArrow=none;exitX=0.854;exitY=0.959;exitPerimeter=0;entryX=0.07;entryY=-0.003;entryPerimeter=0;lucidId=ywpIkFkX_6Di;fontStyle=1;labelBackgroundColor=none;fontColor=default;" edge="1" parent="1" target="meDeadWaqPJBfcy_o66P-15">
          <mxGeometry width="100" height="100" relative="1" as="geometry">
            <Array as="points" />
            <mxPoint x="-26.279999999999745" y="199.3100000000004" as="sourcePoint" />
          </mxGeometry>
        </mxCell>
        <mxCell id="meDeadWaqPJBfcy_o66P-46" value="" style="html=1;jettySize=18;whiteSpace=wrap;fontSize=13;strokeOpacity=100;strokeWidth=0.8;rounded=0;startArrow=none;endArrow=none;exitX=1.002;exitY=0.5;exitPerimeter=0;entryX=0.002;entryY=0.983;entryPerimeter=0;lucidId=expIHh9lp7Qt;fontStyle=1;labelBackgroundColor=none;fontColor=default;" edge="1" parent="1" target="meDeadWaqPJBfcy_o66P-15">
          <mxGeometry width="100" height="100" relative="1" as="geometry">
            <Array as="points" />
            <mxPoint x="-164.63999999999987" y="420" as="sourcePoint" />
          </mxGeometry>
        </mxCell>
        <mxCell id="meDeadWaqPJBfcy_o66P-47" value="" style="html=1;jettySize=18;whiteSpace=wrap;fontSize=13;strokeOpacity=100;strokeWidth=0.8;rounded=0;startArrow=none;endArrow=none;exitX=1;exitY=1;entryX=-0.002;entryY=0.5;entryPerimeter=0;lucidId=expIXgFWvgGC;fontStyle=1;labelBackgroundColor=none;fontColor=default;exitDx=0;exitDy=0;" edge="1" parent="1" source="meDeadWaqPJBfcy_o66P-92" target="meDeadWaqPJBfcy_o66P-15">
          <mxGeometry width="100" height="100" relative="1" as="geometry">
            <Array as="points" />
            <mxPoint x="-104.63999999999987" y="274" as="sourcePoint" />
          </mxGeometry>
        </mxCell>
        <mxCell id="meDeadWaqPJBfcy_o66P-48" value="" style="html=1;jettySize=18;whiteSpace=wrap;fontSize=13;strokeOpacity=100;strokeWidth=0.8;rounded=0;arcSize=12;edgeStyle=orthogonalEdgeStyle;startArrow=none;endArrow=none;exitX=0.5;exitY=-0.003;exitPerimeter=0;lucidId=oypIa6WunIZW;fontStyle=1;labelBackgroundColor=none;fontColor=default;" edge="1" parent="1" source="meDeadWaqPJBfcy_o66P-15">
          <mxGeometry width="100" height="100" relative="1" as="geometry">
            <Array as="points" />
            <mxPoint x="172" y="270" as="targetPoint" />
          </mxGeometry>
        </mxCell>
        <mxCell id="meDeadWaqPJBfcy_o66P-52" value="" style="html=1;jettySize=18;whiteSpace=wrap;fontSize=13;strokeOpacity=100;strokeWidth=0.8;rounded=0;startArrow=none;endArrow=none;exitX=0.859;exitY=-0.003;exitPerimeter=0;entryX=0.5;entryY=1.004;entryPerimeter=0;lucidId=HzpIDWHBWZDF;fontStyle=1;labelBackgroundColor=none;fontColor=default;" edge="1" parent="1" source="meDeadWaqPJBfcy_o66P-8">
          <mxGeometry width="100" height="100" relative="1" as="geometry">
            <Array as="points" />
            <mxPoint x="855" y="285.3599999999999" as="targetPoint" />
          </mxGeometry>
        </mxCell>
        <mxCell id="meDeadWaqPJBfcy_o66P-53" value="" style="html=1;jettySize=18;whiteSpace=wrap;fontSize=13;strokeOpacity=100;strokeWidth=0.8;rounded=0;startArrow=none;endArrow=none;exitX=1.002;exitY=0.5;exitPerimeter=0;entryX=-0.002;entryY=0.5;entryPerimeter=0;lucidId=6zpIXqIgzFBG;fontStyle=1;labelBackgroundColor=none;fontColor=default;" edge="1" parent="1" source="meDeadWaqPJBfcy_o66P-8">
          <mxGeometry width="100" height="100" relative="1" as="geometry">
            <Array as="points" />
            <mxPoint x="959.6399999999999" y="345" as="targetPoint" />
          </mxGeometry>
        </mxCell>
        <mxCell id="meDeadWaqPJBfcy_o66P-54" value="" style="html=1;jettySize=18;whiteSpace=wrap;fontSize=13;strokeOpacity=100;strokeWidth=0.8;rounded=0;startArrow=none;endArrow=none;exitX=1.002;exitY=0.917;exitPerimeter=0;entryX=-0.002;entryY=0.5;entryPerimeter=0;lucidId=aApIauQ0vjME;fontStyle=1;labelBackgroundColor=none;fontColor=default;" edge="1" parent="1" source="meDeadWaqPJBfcy_o66P-8">
          <mxGeometry width="100" height="100" relative="1" as="geometry">
            <Array as="points" />
            <mxPoint x="854.6399999999999" y="480" as="targetPoint" />
          </mxGeometry>
        </mxCell>
        <mxCell id="meDeadWaqPJBfcy_o66P-59" value="" style="html=1;jettySize=18;whiteSpace=wrap;fontSize=13;strokeOpacity=100;strokeWidth=0.8;rounded=0;startArrow=none;endArrow=none;exitX=0.997;exitY=0.598;exitPerimeter=0;entryX=0.003;entryY=0.014;entryPerimeter=0;lucidId=aDpI~yY_b7mR;fontStyle=1;labelBackgroundColor=none;fontColor=default;" edge="1" parent="1" target="meDeadWaqPJBfcy_o66P-20">
          <mxGeometry width="100" height="100" relative="1" as="geometry">
            <Array as="points" />
            <mxPoint x="179.46000000000004" y="638.8200000000002" as="sourcePoint" />
          </mxGeometry>
        </mxCell>
        <mxCell id="meDeadWaqPJBfcy_o66P-60" value="" style="html=1;jettySize=18;whiteSpace=wrap;fontSize=13;strokeOpacity=100;strokeWidth=0.8;rounded=0;startArrow=none;endArrow=none;exitX=1.002;exitY=0.5;exitPerimeter=0;entryX=-0.002;entryY=0.5;entryPerimeter=0;lucidId=cDpI_HJ._wor;fontStyle=1;labelBackgroundColor=none;fontColor=default;" edge="1" parent="1" target="meDeadWaqPJBfcy_o66P-20">
          <mxGeometry width="100" height="100" relative="1" as="geometry">
            <Array as="points" />
            <mxPoint x="195.3599999999999" y="750" as="sourcePoint" />
          </mxGeometry>
        </mxCell>
        <mxCell id="meDeadWaqPJBfcy_o66P-61" value="" style="html=1;jettySize=18;whiteSpace=wrap;fontSize=13;strokeOpacity=100;strokeWidth=0.8;rounded=0;startArrow=none;endArrow=none;exitX=0.964;exitY=0.233;exitPerimeter=0;entryX=-0.002;entryY=0.888;entryPerimeter=0;lucidId=dDpI~g61-vCv;fontStyle=1;labelBackgroundColor=none;fontColor=default;" edge="1" parent="1" target="meDeadWaqPJBfcy_o66P-20">
          <mxGeometry width="100" height="100" relative="1" as="geometry">
            <Array as="points" />
            <mxPoint x="173.51999999999975" y="845.9699999999998" as="sourcePoint" />
          </mxGeometry>
        </mxCell>
        <mxCell id="meDeadWaqPJBfcy_o66P-62" value="" style="html=1;jettySize=18;whiteSpace=wrap;fontSize=13;strokeOpacity=100;strokeWidth=0.8;rounded=0;startArrow=none;endArrow=none;exitX=0.5;exitY=-0.004;exitPerimeter=0;entryX=0.983;entryY=1.001;entryPerimeter=0;lucidId=eDpIgrc7VCsg;fontStyle=1;labelBackgroundColor=none;fontColor=default;" edge="1" parent="1" target="meDeadWaqPJBfcy_o66P-20">
          <mxGeometry width="100" height="100" relative="1" as="geometry">
            <Array as="points" />
            <mxPoint x="556" y="854.6399999999999" as="sourcePoint" />
          </mxGeometry>
        </mxCell>
        <mxCell id="meDeadWaqPJBfcy_o66P-64" value="" style="endArrow=none;html=1;rounded=0;exitX=0.933;exitY=0.717;exitDx=0;exitDy=0;labelBackgroundColor=none;fontColor=default;exitPerimeter=0;entryX=0.092;entryY=0.144;entryDx=0;entryDy=0;entryPerimeter=0;" edge="1" parent="1" source="meDeadWaqPJBfcy_o66P-88" target="meDeadWaqPJBfcy_o66P-89">
          <mxGeometry width="50" height="50" relative="1" as="geometry">
            <mxPoint x="646" y="922.5" as="sourcePoint" />
            <mxPoint x="760" y="990" as="targetPoint" />
          </mxGeometry>
        </mxCell>
        <mxCell id="meDeadWaqPJBfcy_o66P-65" value="" style="endArrow=none;html=1;rounded=0;exitX=0.5;exitY=1;exitDx=0;exitDy=0;labelBackgroundColor=none;fontColor=default;entryX=0.347;entryY=-0.033;entryDx=0;entryDy=0;entryPerimeter=0;" edge="1" parent="1" source="meDeadWaqPJBfcy_o66P-88" target="meDeadWaqPJBfcy_o66P-90">
          <mxGeometry width="50" height="50" relative="1" as="geometry">
            <mxPoint x="556" y="945" as="sourcePoint" />
            <mxPoint x="620" y="970" as="targetPoint" />
          </mxGeometry>
        </mxCell>
        <mxCell id="meDeadWaqPJBfcy_o66P-78" value="hall_charges" style="ellipse;whiteSpace=wrap;html=1;align=center;" vertex="1" parent="1">
          <mxGeometry x="980" y="-130" width="100" height="40" as="geometry" />
        </mxCell>
        <mxCell id="meDeadWaqPJBfcy_o66P-79" value="hall_capacity" style="ellipse;whiteSpace=wrap;html=1;align=center;" vertex="1" parent="1">
          <mxGeometry x="870" y="-280" width="100" height="40" as="geometry" />
        </mxCell>
        <mxCell id="meDeadWaqPJBfcy_o66P-80" value="hall_status" style="ellipse;whiteSpace=wrap;html=1;align=center;" vertex="1" parent="1">
          <mxGeometry x="790" y="-370" width="100" height="40" as="geometry" />
        </mxCell>
        <mxCell id="meDeadWaqPJBfcy_o66P-81" value="hall_id" style="ellipse;whiteSpace=wrap;html=1;align=center;" vertex="1" parent="1">
          <mxGeometry x="595" y="-380" width="100" height="40" as="geometry" />
        </mxCell>
        <mxCell id="meDeadWaqPJBfcy_o66P-82" value="organizer_id" style="ellipse;whiteSpace=wrap;html=1;align=center;" vertex="1" parent="1">
          <mxGeometry x="820" y="260" width="100" height="40" as="geometry" />
        </mxCell>
        <mxCell id="meDeadWaqPJBfcy_o66P-83" value="organizer_contact" style="ellipse;whiteSpace=wrap;html=1;align=center;" vertex="1" parent="1">
          <mxGeometry x="840" y="470" width="100" height="40" as="geometry" />
        </mxCell>
        <mxCell id="meDeadWaqPJBfcy_o66P-84" value="organizer_name" style="ellipse;whiteSpace=wrap;html=1;align=center;" vertex="1" parent="1">
          <mxGeometry x="940" y="319" width="100" height="40" as="geometry" />
        </mxCell>
        <mxCell id="meDeadWaqPJBfcy_o66P-85" value="event_id" style="ellipse;whiteSpace=wrap;html=1;align=center;" vertex="1" parent="1">
          <mxGeometry x="80" y="620" width="100" height="40" as="geometry" />
        </mxCell>
        <mxCell id="meDeadWaqPJBfcy_o66P-86" value="event_description" style="ellipse;whiteSpace=wrap;html=1;align=center;" vertex="1" parent="1">
          <mxGeometry x="86" y="840" width="100" height="40" as="geometry" />
        </mxCell>
        <mxCell id="meDeadWaqPJBfcy_o66P-87" value="event_name" style="ellipse;whiteSpace=wrap;html=1;align=center;" vertex="1" parent="1">
          <mxGeometry x="100" y="730" width="100" height="40" as="geometry" />
        </mxCell>
        <mxCell id="meDeadWaqPJBfcy_o66P-88" value="event_time" style="ellipse;whiteSpace=wrap;html=1;align=center;" vertex="1" parent="1">
          <mxGeometry x="530" y="850" width="100" height="40" as="geometry" />
        </mxCell>
        <mxCell id="meDeadWaqPJBfcy_o66P-89" value="start_time" style="ellipse;whiteSpace=wrap;html=1;align=center;" vertex="1" parent="1">
          <mxGeometry x="695" y="940" width="100" height="40" as="geometry" />
        </mxCell>
        <mxCell id="meDeadWaqPJBfcy_o66P-90" value="end_time" style="ellipse;whiteSpace=wrap;html=1;align=center;" vertex="1" parent="1">
          <mxGeometry x="570" y="980" width="100" height="40" as="geometry" />
        </mxCell>
        <mxCell id="meDeadWaqPJBfcy_o66P-91" value="service_charges" style="ellipse;whiteSpace=wrap;html=1;align=center;" vertex="1" parent="1">
          <mxGeometry x="-250" y="400" width="100" height="40" as="geometry" />
        </mxCell>
        <mxCell id="meDeadWaqPJBfcy_o66P-92" value="service_name" style="ellipse;whiteSpace=wrap;html=1;align=center;" vertex="1" parent="1">
          <mxGeometry x="-180" y="270" width="100" height="40" as="geometry" />
        </mxCell>
        <mxCell id="meDeadWaqPJBfcy_o66P-93" value="service_id" style="ellipse;whiteSpace=wrap;html=1;align=center;" vertex="1" parent="1">
          <mxGeometry x="-100" y="170" width="100" height="40" as="geometry" />
        </mxCell>
        <mxCell id="meDeadWaqPJBfcy_o66P-97" value="attendee_id" style="ellipse;whiteSpace=wrap;html=1;align=center;" vertex="1" parent="1">
          <mxGeometry x="-370" y="875" width="100" height="40" as="geometry" />
        </mxCell>
        <mxCell id="meDeadWaqPJBfcy_o66P-98" value="attendee_contact" style="ellipse;whiteSpace=wrap;html=1;align=center;" vertex="1" parent="1">
          <mxGeometry x="-400" y="1030" width="100" height="40" as="geometry" />
        </mxCell>
        <mxCell id="meDeadWaqPJBfcy_o66P-99" value="attendee_name" style="ellipse;whiteSpace=wrap;html=1;align=center;" vertex="1" parent="1">
          <mxGeometry x="-460" y="930" width="100" height="40" as="geometry" />
        </mxCell>
        <mxCell id="meDeadWaqPJBfcy_o66P-101" value="" style="endArrow=none;html=1;rounded=0;entryX=0.933;entryY=0.715;entryDx=0;entryDy=0;entryPerimeter=0;exitX=0;exitY=0.25;exitDx=0;exitDy=0;" edge="1" parent="1" source="meDeadWaqPJBfcy_o66P-27" target="meDeadWaqPJBfcy_o66P-97">
          <mxGeometry width="50" height="50" relative="1" as="geometry">
            <mxPoint x="-90" y="1020" as="sourcePoint" />
            <mxPoint x="-40" y="970" as="targetPoint" />
          </mxGeometry>
        </mxCell>
        <mxCell id="meDeadWaqPJBfcy_o66P-102" value="" style="endArrow=none;html=1;rounded=0;entryX=0.932;entryY=0.297;entryDx=0;entryDy=0;entryPerimeter=0;exitX=-0.011;exitY=0.864;exitDx=0;exitDy=0;exitPerimeter=0;" edge="1" parent="1" source="meDeadWaqPJBfcy_o66P-27">
          <mxGeometry width="50" height="50" relative="1" as="geometry">
            <mxPoint x="-217.7" y="1019.9999999999999" as="sourcePoint" />
            <mxPoint x="-310.00000000000017" y="1038.7600000000002" as="targetPoint" />
            <Array as="points">
              <mxPoint x="-253.2" y="1026.88" />
            </Array>
          </mxGeometry>
        </mxCell>
        <mxCell id="meDeadWaqPJBfcy_o66P-103" value="" style="endArrow=none;html=1;rounded=0;entryX=0.933;entryY=0.715;entryDx=0;entryDy=0;entryPerimeter=0;exitX=0;exitY=0.5;exitDx=0;exitDy=0;" edge="1" parent="1" source="meDeadWaqPJBfcy_o66P-27">
          <mxGeometry width="50" height="50" relative="1" as="geometry">
            <mxPoint x="-293" y="995.5" as="sourcePoint" />
            <mxPoint x="-360" y="954.5" as="targetPoint" />
          </mxGeometry>
        </mxCell>
        <mxCell id="meDeadWaqPJBfcy_o66P-104" value="ticket_id" style="ellipse;whiteSpace=wrap;html=1;align=center;" vertex="1" parent="1">
          <mxGeometry x="-440" y="485" width="100" height="40" as="geometry" />
        </mxCell>
        <mxCell id="meDeadWaqPJBfcy_o66P-105" value="tickets_booked" style="ellipse;whiteSpace=wrap;html=1;align=center;" vertex="1" parent="1">
          <mxGeometry x="-380" y="670" width="100" height="40" as="geometry" />
        </mxCell>
        <mxCell id="meDeadWaqPJBfcy_o66P-106" value="ticket_price" style="ellipse;whiteSpace=wrap;html=1;align=center;" vertex="1" parent="1">
          <mxGeometry x="-450" y="580" width="100" height="40" as="geometry" />
        </mxCell>
        <mxCell id="meDeadWaqPJBfcy_o66P-107" value="" style="endArrow=none;html=1;rounded=0;entryX=1.001;entryY=0.651;entryDx=0;entryDy=0;entryPerimeter=0;exitX=0.001;exitY=0.143;exitDx=0;exitDy=0;exitPerimeter=0;" edge="1" parent="1" source="meDeadWaqPJBfcy_o66P-23" target="meDeadWaqPJBfcy_o66P-104">
          <mxGeometry width="50" height="50" relative="1" as="geometry">
            <mxPoint x="-90" y="590" as="sourcePoint" />
            <mxPoint x="-40" y="540" as="targetPoint" />
          </mxGeometry>
        </mxCell>
        <mxCell id="meDeadWaqPJBfcy_o66P-108" value="" style="endArrow=none;html=1;rounded=0;entryX=0.574;entryY=-0.061;entryDx=0;entryDy=0;entryPerimeter=0;exitX=-0.01;exitY=0.888;exitDx=0;exitDy=0;exitPerimeter=0;" edge="1" parent="1" source="meDeadWaqPJBfcy_o66P-23" target="meDeadWaqPJBfcy_o66P-105">
          <mxGeometry width="50" height="50" relative="1" as="geometry">
            <mxPoint x="-210" y="691" as="sourcePoint" />
            <mxPoint x="-325" y="660" as="targetPoint" />
          </mxGeometry>
        </mxCell>
        <mxCell id="meDeadWaqPJBfcy_o66P-109" value="" style="endArrow=none;html=1;rounded=0;entryX=0.923;entryY=0.165;entryDx=0;entryDy=0;entryPerimeter=0;exitX=0.001;exitY=0.406;exitDx=0;exitDy=0;exitPerimeter=0;" edge="1" parent="1" source="meDeadWaqPJBfcy_o66P-23" target="meDeadWaqPJBfcy_o66P-106">
          <mxGeometry width="50" height="50" relative="1" as="geometry">
            <mxPoint x="-205" y="562" as="sourcePoint" />
            <mxPoint x="-320" y="531" as="targetPoint" />
          </mxGeometry>
        </mxCell>
        <mxCell id="meDeadWaqPJBfcy_o66P-115" value="1" style="text;html=1;align=center;verticalAlign=middle;resizable=0;points=[];autosize=1;strokeColor=none;fillColor=none;" vertex="1" parent="1">
          <mxGeometry x="86" y="-130" width="30" height="30" as="geometry" />
        </mxCell>
        <mxCell id="meDeadWaqPJBfcy_o66P-118" value="M" style="text;html=1;align=center;verticalAlign=middle;resizable=0;points=[];autosize=1;strokeColor=none;fillColor=none;" vertex="1" parent="1">
          <mxGeometry x="545" y="-132" width="30" height="30" as="geometry" />
        </mxCell>
        <mxCell id="meDeadWaqPJBfcy_o66P-119" value="" style="endArrow=classic;html=1;rounded=0;entryX=0.5;entryY=1;entryDx=0;entryDy=0;" edge="1" parent="1">
          <mxGeometry width="50" height="50" relative="1" as="geometry">
            <mxPoint x="684.63" y="70" as="sourcePoint" />
            <mxPoint x="684.63" y="-30.000000000000227" as="targetPoint" />
            <Array as="points" />
          </mxGeometry>
        </mxCell>
        <mxCell id="meDeadWaqPJBfcy_o66P-120" value="" style="endArrow=classic;html=1;rounded=0;exitX=0.399;exitY=-0.018;exitDx=0;exitDy=0;exitPerimeter=0;entryX=0.5;entryY=1;entryDx=0;entryDy=0;" edge="1" parent="1" source="meDeadWaqPJBfcy_o66P-8" target="meDeadWaqPJBfcy_o66P-9">
          <mxGeometry width="50" height="50" relative="1" as="geometry">
            <mxPoint x="650" y="300" as="sourcePoint" />
            <mxPoint x="700" y="250" as="targetPoint" />
            <Array as="points" />
          </mxGeometry>
        </mxCell>
        <mxCell id="meDeadWaqPJBfcy_o66P-121" value="!" style="text;html=1;align=center;verticalAlign=middle;resizable=0;points=[];autosize=1;strokeColor=none;fillColor=none;" vertex="1" parent="1">
          <mxGeometry x="685" y="298" width="30" height="30" as="geometry" />
        </mxCell>
        <mxCell id="meDeadWaqPJBfcy_o66P-122" value="M" style="text;html=1;align=center;verticalAlign=middle;resizable=0;points=[];autosize=1;strokeColor=none;fillColor=none;" vertex="1" parent="1">
          <mxGeometry x="685" y="-15" width="30" height="30" as="geometry" />
        </mxCell>
        <mxCell id="meDeadWaqPJBfcy_o66P-124" value="!" style="text;html=1;align=center;verticalAlign=middle;resizable=0;points=[];autosize=1;strokeColor=none;fillColor=none;" vertex="1" parent="1">
          <mxGeometry x="-5" y="-22" width="30" height="30" as="geometry" />
        </mxCell>
        <mxCell id="meDeadWaqPJBfcy_o66P-125" value="M" style="text;html=1;align=center;verticalAlign=middle;resizable=0;points=[];autosize=1;strokeColor=none;fillColor=none;" vertex="1" parent="1">
          <mxGeometry x="180" y="289" width="30" height="30" as="geometry" />
        </mxCell>
        <mxCell id="meDeadWaqPJBfcy_o66P-126" value="1" style="text;html=1;align=center;verticalAlign=middle;resizable=0;points=[];autosize=1;strokeColor=none;fillColor=none;" vertex="1" parent="1">
          <mxGeometry x="575" y="358" width="30" height="30" as="geometry" />
        </mxCell>
        <mxCell id="meDeadWaqPJBfcy_o66P-127" value="M" style="text;html=1;align=center;verticalAlign=middle;resizable=0;points=[];autosize=1;strokeColor=none;fillColor=none;" vertex="1" parent="1">
          <mxGeometry x="265" y="358" width="30" height="30" as="geometry" />
        </mxCell>
        <mxCell id="meDeadWaqPJBfcy_o66P-129" value="1" style="text;html=1;align=center;verticalAlign=middle;resizable=0;points=[];autosize=1;strokeColor=none;fillColor=none;" vertex="1" parent="1">
          <mxGeometry x="555" y="448" width="30" height="30" as="geometry" />
        </mxCell>
        <mxCell id="meDeadWaqPJBfcy_o66P-130" value="M" style="text;html=1;align=center;verticalAlign=middle;resizable=0;points=[];autosize=1;strokeColor=none;fillColor=none;" vertex="1" parent="1">
          <mxGeometry x="-35" y="538" width="30" height="30" as="geometry" />
        </mxCell>
        <mxCell id="meDeadWaqPJBfcy_o66P-131" value="1" style="text;html=1;align=center;verticalAlign=middle;resizable=0;points=[];autosize=1;strokeColor=none;fillColor=none;" vertex="1" parent="1">
          <mxGeometry x="-120" y="880" width="30" height="30" as="geometry" />
        </mxCell>
        <mxCell id="meDeadWaqPJBfcy_o66P-132" value="M" style="text;html=1;align=center;verticalAlign=middle;resizable=0;points=[];autosize=1;strokeColor=none;fillColor=none;" vertex="1" parent="1">
          <mxGeometry x="-115" y="648" width="30" height="30" as="geometry" />
        </mxCell>
        <mxCell id="meDeadWaqPJBfcy_o66P-133" value="1" style="text;html=1;align=center;verticalAlign=middle;resizable=0;points=[];autosize=1;strokeColor=none;fillColor=none;" vertex="1" parent="1">
          <mxGeometry x="705" y="458" width="30" height="30" as="geometry" />
        </mxCell>
        <mxCell id="meDeadWaqPJBfcy_o66P-134" value="M" style="text;html=1;align=center;verticalAlign=middle;resizable=0;points=[];autosize=1;strokeColor=none;fillColor=none;" vertex="1" parent="1">
          <mxGeometry x="445" y="728" width="30" height="30" as="geometry" />
        </mxCell>
        <mxCell id="meDeadWaqPJBfcy_o66P-135" value="1" style="text;html=1;align=center;verticalAlign=middle;resizable=0;points=[];autosize=1;strokeColor=none;fillColor=none;" vertex="1" parent="1">
          <mxGeometry x="-25" y="958" width="30" height="30" as="geometry" />
        </mxCell>
        <mxCell id="meDeadWaqPJBfcy_o66P-136" value="M" style="text;html=1;align=center;verticalAlign=middle;resizable=0;points=[];autosize=1;strokeColor=none;fillColor=none;" vertex="1" parent="1">
          <mxGeometry x="345" y="828" width="30" height="30" as="geometry" />
        </mxCell>
        <mxCell id="meDeadWaqPJBfcy_o66P-137" value="tickets_booked" style="ellipse;whiteSpace=wrap;html=1;align=center;" vertex="1" parent="1">
          <mxGeometry x="370" y="600" width="100" height="40" as="geometry" />
        </mxCell>
        <mxCell id="meDeadWaqPJBfcy_o66P-138" value="" style="endArrow=none;html=1;rounded=0;entryX=0.75;entryY=0;entryDx=0;entryDy=0;exitX=0.5;exitY=1;exitDx=0;exitDy=0;" edge="1" parent="1" source="meDeadWaqPJBfcy_o66P-137" target="meDeadWaqPJBfcy_o66P-20">
          <mxGeometry relative="1" as="geometry">
            <mxPoint x="220" y="570" as="sourcePoint" />
            <mxPoint x="380" y="570" as="targetPoint" />
          </mxGeometry>
        </mxCell>
      </root>
    </mxGraphModel>
  </diagram>
</mxfile>
